<?xml version="1.0" encoding="UTF-8" standalone="no"?>
<svg
   xmlns:dc="http://purl.org/dc/elements/1.1/"
   xmlns:cc="http://creativecommons.org/ns#"
   xmlns:rdf="http://www.w3.org/1999/02/22-rdf-syntax-ns#"
   xmlns:svg="http://www.w3.org/2000/svg"
   xmlns="http://www.w3.org/2000/svg"
   id="svg47"
   version="1.1"
   viewBox="0 0 640 480">
  <metadata
     id="metadata51">
    <rdf:RDF>
      <cc:Work
         rdf:about="">
        <dc:format>image/svg+xml</dc:format>
        <dc:type
           rdf:resource="http://purl.org/dc/dcmitype/StillImage" />
      </cc:Work>
    </rdf:RDF>
  </metadata>
  <defs
     id="defs4">
    <style
       id="style2">.cls-1{isolation:isolate;}.cls-2{fill:#41deef;mix-blend-mode:luminosity;}.cls-3{fill:#11aad3;}.cls-4{fill:#63c963;}.cls-5{fill:#229622;}.cls-6{fill:#46af46;}.cls-7{fill:#d38adb;}.cls-8{fill:#8a4a91;}.cls-9{fill:#1b8e1b;}.cls-10{fill:#dfa8e5;}.cls-11{fill:#b45dc1;}</style>
  </defs>
  <title
     id="title6">Artboard 1</title>
  <g
     id="g45"
     class="cls-1">
    <g
       data-name="Layer 1"
       id="Layer_1">
      <ellipse
         id="ellipse8"
         ry="240"
         rx="236"
         cy="241"
         cx="332"
         class="cls-2" />
      <polygon
         id="polygon10"
         points="367.53 477.6 325.67 428.47 364.75 422.28 367.53 477.6"
         class="cls-3" />
      <polygon
         id="polygon12"
         points="356.23 264.6 288.21 185.76 354.34 184.41 356.23 264.6"
         class="cls-3" />
      <polygon
         id="polygon14"
         points="338 323 297.29 274.07 292.59 314.89 338 323"
         class="cls-3" />
      <polygon
         id="polygon16"
         points="339.23 388.6 271.21 309.76 337.34 308.41 339.23 388.6"
         class="cls-3" />
      <polygon
         id="polygon18"
         points="566 271 405.81 92.57 384.58 243.69 566 271"
         class="cls-3" />
      <path
         id="path20"
         d="M339.23,209,407,93,385,241l181,30c-6.89,51.5-27.73,93.88-54.8,126.17-25.47,29.53-55.13,51.69-89.36,65.82a253,253,0,0,1-46.29,13.93L327.6,429.86Z"
         class="cls-3" />
      <path
         id="path22"
         d="M411.77,235.54c-38.81-1.11-71.22,33.85-72.44,78.17"
         class="cls-4" />
      <path
         id="path24"
         d="M411.87,235.64c3.28,39.34-29.2,74.22-72.64,78"
         class="cls-5" />
      <path
         id="path26"
         d="M248.81,260.43c0,39.48,35.28,71.43,78.88,71.43"
         class="cls-4" />
      <path
         id="path28"
         d="M248.91,260.32c38.57-4.45,73.77,27.59,78.69,71.65"
         class="cls-5" />
      <path
         id="path30"
         d="M333.85,433.38c-4.77,0-8.63-5.05-8.63-11.28V174h8.63Z"
         class="cls-6" />
      <path
         id="path32"
         d="M333.17,184.39c-29.76-32.55-30.53-79.82-1.72-105.69"
         class="cls-7" />
      <path
         id="path34"
         d="M332.05,184.29c29.07-32.66,28.81-79.89-.6-105.59"
         class="cls-8" />
      <path
         id="path36"
         d="M333,433.39c4.77,0,8.61-5.07,8.59-11.31l-.75-248.14-8.63,0Z"
         class="cls-9" />
      <path
         id="path38"
         d="M257.44,92.62C257.44,157,290.79,209,332,209V138.17C332,113,298.65,92.62,257.44,92.62Z"
         class="cls-10" />
      <path
         id="path40"
         d="M406.56,92.62C406.56,157,373.21,209,332,209V138.17C332,113,365.35,92.62,406.56,92.62Z"
         class="cls-11" />
      <polyline
         id="polyline42"
         points="366.64 476.55 367.84 478.25 376.57 476.71 367.08 468.61"
         class="cls-3" />
    </g>
  </g>
</svg>
