<?xml version="1.0" encoding="utf-8"?>
<!-- Generator: Adobe Illustrator 22.1.0, SVG Export Plug-In . SVG Version: 6.00 Build 0)  -->
<svg version="1.1" id="Layer_1" xmlns="http://www.w3.org/2000/svg" xmlns:xlink="http://www.w3.org/1999/xlink" x="0px" y="0px"
	 viewBox="0 0 16 16" style="enable-background:new 0 0 16 16;" xml:space="preserve">
<style type="text/css">
	.st0{fill:#41DEEF;}
	.st1{fill:#11AAD3;}
	.st2{fill:#63C963;}
	.st3{fill:#229622;}
	.st4{fill:#46AF46;}
	.st5{fill:#D38ADB;}
	.st6{fill:#8A4A91;}
	.st7{fill:#1B8E1B;}
	.st8{fill:#DFA8E5;}
	.st9{fill:#B45DC1;}
</style>
<circle class="st0" cx="8" cy="8" r="8"/>
<polygon class="st1" points="9.2,15.9 7.8,14.2 9.1,14 "/>
<polygon class="st1" points="8.8,8.8 6.5,6.2 8.8,6.1 "/>
<polygon class="st1" points="8.2,10.7 6.8,9.1 6.7,10.5 "/>
<polygon class="st1" points="8.2,12.9 5.9,10.3 8.2,10.2 "/>
<polygon class="st1" points="15.9,9 10.5,3.1 9.8,8.1 "/>
<path class="st1" d="M8.2,6.9l2.3-3.9L9.8,8l6.1,1c-0.2,1.7-0.9,3.1-1.9,4.2c-0.9,1-1.9,1.7-3,2.2c-0.6,0.2-1.1,0.4-1.6,0.5
	l-1.6-1.6L8.2,6.9z"/>
<path class="st2" d="M10.7,7.8c-1.3,0-2.4,1.1-2.5,2.6"/>
<path class="st3" d="M10.7,7.8c0.1,1.3-1,2.5-2.5,2.6"/>
<path class="st2" d="M5.2,8.6C5.2,10,6.4,11,7.9,11"/>
<path class="st3" d="M5.2,8.6C6.5,8.5,7.7,9.6,7.9,11"/>
<path class="st4" d="M8.1,14.4c-0.2,0-0.3-0.2-0.3-0.4V5.8c0,0,0.3,0,0.3,0S8.1,14.4,8.1,14.4z"/>
<path class="st5" d="M8,6.1C7,5,7,3.5,8,2.6"/>
<path class="st6" d="M8,6.1C9,5,9,3.4,8,2.6"/>
<path class="st7" d="M8,14.4c0.2,0,0.3-0.2,0.3-0.4l0-8.3c0,0-0.3,0-0.3,0S8,14.4,8,14.4z"/>
<path class="st8" d="M5.5,3.1c0,2.1,1.1,3.9,2.5,3.9V4.6C8,3.7,6.9,3.1,5.5,3.1z"/>
<path class="st9" d="M10.5,3.1c0,2.1-1.1,3.9-2.5,3.9V4.6C8,3.7,9.1,3.1,10.5,3.1z"/>
<path class="st0" d="M10.5,3.1"/>
<polyline class="st1" points="9.2,15.9 9.2,15.9 9.5,15.9 9.2,15.6 "/>
</svg>
