<?xml version="1.0" encoding="utf-8"?>
<!-- Generator: Adobe Illustrator 22.1.0, SVG Export Plug-In . SVG Version: 6.00 Build 0)  -->
<svg version="1.1" id="Layer_1" xmlns="http://www.w3.org/2000/svg" xmlns:xlink="http://www.w3.org/1999/xlink" x="0px" y="0px"
	 viewBox="0 0 32 32" style="enable-background:new 0 0 32 32;" xml:space="preserve">
<style type="text/css">
	.st0{fill:#41DEEF;}
	.st1{fill:#11AAD3;}
	.st2{fill:#63C963;}
	.st3{fill:#229622;}
	.st4{fill:#46AF46;}
	.st5{fill:#D38ADB;}
	.st6{fill:#8A4A91;}
	.st7{fill:#1B8E1B;}
	.st8{fill:#DFA8E5;}
	.st9{fill:#B45DC1;}
</style>
<circle class="st0" cx="16" cy="16" r="16"/>
<polygon class="st1" points="18.4,31.8 15.6,28.5 18.2,28.1 "/>
<polygon class="st1" points="17.6,17.6 13,12.3 17.5,12.2 "/>
<polygon class="st1" points="16.4,21.5 13.6,18.2 13.3,20.9 "/>
<polygon class="st1" points="16.5,25.8 11.9,20.6 16.4,20.5 "/>
<polygon class="st1" points="31.9,18 21,6.1 19.6,16.2 "/>
<path class="st1" d="M16.5,13.9l4.6-7.7L19.6,16l12.3,2c-0.5,3.4-1.9,6.3-3.7,8.4c-1.7,2-3.7,3.4-6.1,4.4c-1.1,0.4-2.2,0.7-3.1,0.9
	l-3.3-3.1L16.5,13.9z"/>
<path class="st2" d="M21.4,15.6c-2.6-0.1-4.8,2.3-4.9,5.2"/>
<path class="st3" d="M21.4,15.6c0.2,2.6-2,4.9-4.9,5.2"/>
<path class="st2" d="M10.4,17.3c0,2.6,2.4,4.8,5.3,4.8"/>
<path class="st3" d="M10.4,17.3c2.6-0.3,5,1.8,5.3,4.8"/>
<path class="st4" d="M16.1,28.8c-0.3,0-0.6-0.3-0.6-0.8V11.5c0,0,0.6,0,0.6,0S16.1,28.8,16.1,28.8z"/>
<path class="st5" d="M16.1,12.2c-2-2.2-2.1-5.3-0.1-7"/>
<path class="st6" d="M16,12.2c2-2.2,2-5.3,0-7"/>
<path class="st7" d="M16.1,28.8c0.3,0,0.6-0.3,0.6-0.8l-0.1-16.5c0,0-0.6,0-0.6,0S16.1,28.8,16.1,28.8z"/>
<path class="st8" d="M10.9,6.1c0,4.3,2.3,7.8,5.1,7.8V9.1C16,7.5,13.7,6.1,10.9,6.1z"/>
<path class="st9" d="M21.1,6.1c0,4.3-2.3,7.8-5.1,7.8V9.1C16,7.5,18.3,6.1,21.1,6.1z"/>
<path class="st0" d="M21.1,6.1"/>
<polyline class="st1" points="18.3,31.7 18.4,31.8 19,31.7 18.4,31.2 "/>
</svg>
